HIERARCHY
ROOT Hips
{
	OFFSET 0.000000 0.000000 0.000000
	CHANNELS 6 Xposition Yposition Zposition Zrotation Yrotation Xrotation 
	JOINT LHipJoint
	{
		OFFSET 0.000000 0.000000 0.000000
		CHANNELS 3 Zrotation Yrotation Xrotation
		JOINT LeftUpLeg
		{
			OFFSET 1.363060 -1.794630 0.839290
			CHANNELS 3 Zrotation Yrotation Xrotation
			JOINT LeftLeg
			{
				OFFSET 2.448110 -6.726130 0.000000
				CHANNELS 3 Zrotation Yrotation Xrotation
				JOINT LeftFoot
				{
					OFFSET 2.562200 -7.039590 0.000000
					CHANNELS 3 Zrotation Yrotation Xrotation
					JOINT LeftToeBase
					{
						OFFSET 0.157640 -0.433110 2.322550
						CHANNELS 3 Zrotation Yrotation Xrotation
						End Site
						{
							OFFSET 0.000000 0.000000 0.000000
						}
					}
				}
			}
		}
	}
	JOINT RHipJoint
	{
		OFFSET 0.000000 0.000000 0.000000
		CHANNELS 3 Zrotation Yrotation Xrotation
		JOINT RightUpLeg
		{
			OFFSET -1.305520 -1.794630 0.839290
			CHANNELS 3 Zrotation Yrotation Xrotation
			JOINT RightLeg
			{
				OFFSET -2.542530 -6.985550 0.000000
				CHANNELS 3 Zrotation Yrotation Xrotation
				JOINT RightFoot
				{
					OFFSET -2.568260 -7.056230 0.000000
					CHANNELS 3 Zrotation Yrotation Xrotation
					JOINT RightToeBase
					{
						OFFSET -0.164730 -0.452590 2.363150
						CHANNELS 3 Zrotation Yrotation Xrotation
						End Site
						{
							OFFSET 0.000000 0.000000 0.000000
						}
					}
				}
			}
		}
	}
	JOINT LowerBack
	{
		OFFSET 0.000000 0.000000 0.000000
		CHANNELS 3 Zrotation Yrotation Xrotation
		JOINT Spine
		{
			OFFSET 0.028270 2.035590 -0.193380
			CHANNELS 3 Zrotation Yrotation Xrotation
			JOINT Spine1
			{
				OFFSET 0.056720 2.048850 -0.042750
				CHANNELS 3 Zrotation Yrotation Xrotation
				JOINT Neck
				{
					OFFSET 0.000000 0.000000 0.000000
					CHANNELS 3 Zrotation Yrotation Xrotation
					JOINT Neck1
					{
						OFFSET -0.054170 1.746240 0.172020
						CHANNELS 3 Zrotation Yrotation Xrotation
						JOINT Head
						{
							OFFSET 0.104070 1.761360 -0.123970
							CHANNELS 3 Zrotation Yrotation Xrotation
							End Site
							{
								OFFSET 0.000000 0.000000 0.000000
							}
						}
					}
				}
				JOINT LeftShoulder
				{
					OFFSET 0.000000 0.000000 0.000000
					CHANNELS 3 Zrotation Yrotation Xrotation
					JOINT LeftArm
					{
						OFFSET 3.362410 1.200890 -0.311210
						CHANNELS 3 Zrotation Yrotation Xrotation
						JOINT LeftForeArm
						{
							OFFSET 4.983000 -0.000000 -0.000000
							CHANNELS 3 Zrotation Yrotation Xrotation
							JOINT LeftHand
							{
								OFFSET 3.483560 -0.000000 -0.000000
								CHANNELS 3 Zrotation Yrotation Xrotation
								JOINT LeftFingerBase
								{
									OFFSET 0.000000 0.000000 0.000000
									CHANNELS 3 Zrotation Yrotation Xrotation
									JOINT LeftHandIndex1
									{
										OFFSET 0.715260 -0.000000 -0.000000
										CHANNELS 3 Zrotation Yrotation Xrotation
										End Site
										{
											OFFSET 0.000000 0.000000 0.000000
										}
									}
								}
								JOINT LThumb
								{
									OFFSET 0.000000 0.000000 0.000000
									CHANNELS 3 Zrotation Yrotation Xrotation
									End Site
									{
										OFFSET 0.000000 0.000000 0.000000
									}
								}
							}
						}
					}
				}
				JOINT RightShoulder
				{
					OFFSET 0.000000 0.000000 0.000000
					CHANNELS 3 Zrotation Yrotation Xrotation
					JOINT RightArm
					{
						OFFSET -3.136600 1.374050 -0.404650
						CHANNELS 3 Zrotation Yrotation Xrotation
						JOINT RightForeArm
						{
							OFFSET -5.241900 -0.000000 -0.000000
							CHANNELS 3 Zrotation Yrotation Xrotation
							JOINT RightHand
							{
								OFFSET -3.444170 -0.000000 -0.000000
								CHANNELS 3 Zrotation Yrotation Xrotation
								JOINT RightFingerBase
								{
									OFFSET 0.000000 0.000000 0.000000
									CHANNELS 3 Zrotation Yrotation Xrotation
									JOINT RightHandIndex1
									{
										OFFSET -0.622530 -0.000000 -0.000000
										CHANNELS 3 Zrotation Yrotation Xrotation
										End Site
										{
											OFFSET 0.000000 0.000000 0.000000
										}
									}
								}
								JOINT RThumb
								{
									OFFSET 0.000000 0.000000 0.000000
									CHANNELS 3 Zrotation Yrotation Xrotation
									End Site
									{
										OFFSET 0.000000 0.000000 0.000000
									}
								}
							}
						}
					}
				}
			}
		}
	}
}
MOTION
Frames: 7
Frame Time: 0.008333
-0.117323 17.976491 1.714998 0.305448 3.036886 1.411309 -1.659971 3.158685 2.070496 -22.502815 -32.948239 12.665814 -1.764512 1.816113 6.401844 -4.097498 27.247080 -7.856180 0.111600 -2.154200 -5.932100 -0.567340 -2.162049 1.046276 23.305657 3.377763 -4.939645 -1.416372 -7.211789 21.900186 0.540991 -5.348971 -7.957496 -0.000600 -0.154900 0.425500 -0.970426 -0.219894 2.710266 1.364298 -0.275897 1.192753 0.048593 -0.271561 -3.855321 -13.699256 -8.140978 -17.309434 10.858458 -9.269105 20.158817 5.514600 -4.172200 14.210500 -6.355481 -0.241738 -1.570201 -85.325087 4.470045 20.151030 15.537261 -21.719791 -3.329649 -1.053647 -1.924469 7.694205 19.175590 22.904749 8.716700 -7.125000 0.000000 0.000000 -10.429700 56.010500 -2.839000 5.097568 1.338178 -0.923271 86.113353 -3.717064 14.742570 -16.230035 23.571854 -3.384950 0.262845 -0.137684 8.084921 -14.818264 8.245052 -2.240100 7.125000 0.000000 0.000000 8.503200 -21.386400 4.869800 
-0.118313 17.976788 1.713018 0.233035 3.009760 1.399770 -1.663379 3.156540 2.063353 -22.333661 -32.961556 12.488024 -1.750121 1.903886 6.637553 -4.102112 27.230420 -7.889707 0.124800 -2.277300 -6.272600 -0.567357 -2.160878 1.046449 23.396238 3.413166 -4.883773 -1.403826 -7.179188 21.807035 0.551009 -5.392938 -7.898982 -0.000600 -0.155400 0.426900 -0.911171 -0.203087 2.711556 1.382481 -0.249230 1.221582 0.037612 -0.260073 -3.815770 -13.693473 -8.148720 -17.350811 10.856857 -9.272224 20.133488 5.510600 -4.171500 14.208500 -6.360109 -0.245103 -1.567237 -85.328431 4.369813 20.189194 15.496147 -21.656740 -3.309039 -1.050432 -1.938894 7.553077 19.116088 23.064839 8.743900 -7.125000 0.000000 0.000000 -10.571700 56.171500 -2.919700 5.100116 1.340286 -0.922150 86.124379 -3.671439 14.655365 -16.230470 23.576350 -3.385248 0.262133 -0.142612 8.135023 -14.819286 8.447728 -2.295500 7.125000 0.000000 0.000000 8.496000 -21.174500 4.906800 
-0.118511 17.978175 1.712226 0.115178 3.002215 1.397539 -1.661483 3.160791 2.065226 -22.181357 -32.966485 12.444799 -1.750690 1.906121 6.636967 -4.115367 27.275682 -7.836644 0.136300 -2.379600 -6.556000 -0.569661 -2.160358 1.045098 23.542177 3.477346 -4.868996 -1.401075 -7.172172 21.789761 0.563359 -5.460692 -7.879265 -0.000100 -0.058400 0.160400 -0.787678 -0.193847 2.694559 1.400108 -0.228543 1.240187 -0.011361 -0.253296 -3.781169 -13.673288 -8.150158 -17.348496 10.892015 -9.279708 20.077596 5.517400 -4.167700 14.185600 -6.363057 -0.246547 -1.564628 -85.323627 4.286289 20.085236 15.464750 -21.608912 -3.292410 -1.053664 -1.939995 7.711092 19.066035 23.142772 8.745200 -7.125000 0.000000 0.000000 -10.665300 56.243000 -2.964500 5.101786 1.343921 -0.921123 86.143404 -3.654684 14.676847 -16.236223 23.586096 -3.388142 0.262064 -0.143546 8.076330 -14.810131 8.509743 -2.310900 7.125000 0.000000 0.000000 8.500700 -21.110300 4.922000 
-0.117521 17.977383 1.712523 0.139296 3.019242 1.376830 -1.663046 3.159489 2.061475 -22.201737 -32.987808 12.420263 -1.745489 1.931099 6.704911 -4.117819 27.286447 -7.806632 0.138400 -2.397500 -6.605400 -0.568938 -2.160394 1.046103 23.507308 3.461748 -4.835356 -1.397941 -7.164003 21.766012 0.562807 -5.455130 -7.872551 -0.000600 -0.156500 0.430000 -0.817201 -0.205311 2.741780 1.402712 -0.245834 1.230459 0.008439 -0.260820 -3.821270 -13.709440 -8.140070 -17.353901 10.931387 -9.257292 20.086286 5.544900 -4.157300 14.192700 -6.364505 -0.241552 -1.566318 -85.368653 4.328305 19.989800 15.449254 -21.584923 -3.285786 -1.071352 -1.902854 7.769892 19.361431 22.627310 8.715100 -7.125000 0.000000 0.000000 -10.082200 55.751900 -2.679600 5.101462 1.345925 -0.921397 86.128605 -3.696347 14.754349 -16.255684 23.610561 -3.396811 0.261458 -0.139388 8.023760 -14.755506 8.360885 -2.261500 7.125000 0.000000 0.000000 8.545600 -21.268700 4.917600 
-0.116234 17.976788 1.712127 0.187157 3.017623 1.358252 -1.663482 3.157612 2.061043 -22.265642 -32.978485 12.438593 -1.743164 1.943095 6.739763 -4.115077 27.277166 -7.837602 0.134400 -2.362800 -6.509400 -0.567980 -2.160700 1.046052 23.436748 3.393333 -4.830161 -1.396683 -7.158855 21.750208 0.549581 -5.373893 -7.859156 -0.001000 -0.200900 0.552000 -0.869791 -0.200439 2.790470 1.396202 -0.242937 1.226681 0.028340 -0.257223 -3.853942 -13.695296 -8.144546 -17.401587 10.874578 -9.260653 20.144633 5.520600 -4.163000 14.225100 -6.366019 -0.243682 -1.566577 -85.385214 4.341772 19.938044 15.432539 -21.559577 -3.279042 -1.077451 -1.875232 7.775586 19.490658 22.214794 8.634700 -7.125000 0.000000 0.000000 -9.744300 55.334300 -2.489400 5.102093 1.342612 -0.922830 86.117021 -3.686170 14.722636 -16.236676 23.583561 -3.388426 0.260629 -0.139432 8.003144 -14.715857 8.363577 -2.255900 7.125000 0.000000 0.000000 8.574500 -21.267600 4.934900 
-0.115739 17.977283 1.711137 0.163539 3.000692 1.364808 -1.663352 3.157926 2.063492 -22.240126 -32.960832 12.442193 -1.745181 1.939222 6.730094 -4.110486 27.248152 -7.923743 0.124300 -2.273000 -6.260700 -0.568367 -2.160520 1.045202 23.466012 3.415262 -4.836702 -1.396903 -7.160567 21.754843 0.551272 -5.388393 -7.878396 -0.000400 -0.123200 0.338500 -0.851628 -0.185644 2.793364 1.400365 -0.222214 1.237008 0.022324 -0.246890 -3.841970 -13.648971 -8.162562 -17.476149 10.809711 -9.286364 20.173698 5.480900 -4.174300 14.251600 -6.366847 -0.247871 -1.565969 -85.384619 4.317387 19.921062 15.428074 -21.552111 -3.277057 -1.072269 -1.872969 7.789669 19.410923 22.167979 8.579800 -7.125000 0.000000 0.000000 -9.811400 55.267300 -2.490700 5.103125 1.338753 -0.923733 86.112278 -3.636940 14.715998 -16.218684 23.558979 -3.380588 0.261027 -0.139236 7.958483 -14.720470 8.362422 -2.256400 7.125000 0.000000 0.000000 8.571100 -21.268600 4.932600 
-0.116333 17.978175 1.710147 0.139237 3.007644 1.353874 -1.665078 3.158750 2.063628 -22.200493 -32.973926 12.425251 -1.744920 1.952478 6.766905 -4.105301 27.207891 -8.064578 0.112900 -2.166100 -5.965000 -0.568499 -2.160557 1.044287 23.509944 3.423061 -4.820418 -1.394897 -7.157342 21.745548 0.564817 -5.468310 -7.878505 -0.000000 0.028200 -0.077500 -0.841447 -0.180112 2.797431 1.409518 -0.213900 1.252466 0.029902 -0.243412 -3.823515 -13.655712 -8.175904 -17.508537 10.819492 -9.298963 20.169290 5.483300 -4.177900 14.260000 -6.367482 -0.247774 -1.565330 -85.385469 4.291829 19.938998 15.427706 -21.550573 -3.277207 -1.071501 -1.868755 7.758426 19.418764 22.089893 8.556500 -7.125000 0.000000 0.000000 -9.766500 55.184800 -2.459500 5.103715 1.339757 -0.923072 86.120216 -3.628126 14.688720 -16.216729 23.556770 -3.379345 0.262490 -0.141771 8.025626 -14.806250 8.444381 -2.292500 7.125000 0.000000 0.000000 8.505400 -21.178900 4.911500 
